# 3ds Max Wavefront OBJ Exporter v0.97b - (c)2007 guruware
# File Created: 08.01.2019 21:24:36

mtllib Traffic Cone.mtl

#
# object Traffic_Cone_01
#

v  -7.4069 0.0000 -19.5055
v  -20.7896 0.0000 -23.0913
v  -20.7896 2.6320 -23.0913
v  -7.4069 2.6320 -19.5055
v  -30.5864 0.0000 -13.2946
v  -30.5864 2.6320 -13.2946
v  -27.0005 0.0000 0.0881
v  -27.0005 2.6320 0.0881
v  -13.6178 0.0000 3.6740
v  -13.6178 2.6320 3.6740
v  -3.8211 0.0000 -6.1228
v  -3.8211 2.6320 -6.1228
v  -19.5039 3.6055 -18.2931
v  -10.9195 3.6055 -15.9929
v  -25.7882 3.6055 -12.0089
v  -23.4880 3.6055 -3.4244
v  -14.9035 3.6055 -1.1242
v  -8.6193 3.6055 -7.4085
v  -17.5234 41.4449 -10.9019
v  -16.3302 41.4449 -10.5822
v  -18.3969 41.4449 -10.0284
v  -18.0772 41.4449 -8.8352
v  -16.8840 41.4449 -8.5155
v  -16.0105 41.4449 -9.3890
v  13.8716 23.2102 13.6081
v  19.1591 11.6205 8.1606
v  16.7701 10.9393 7.2911
v  11.4826 22.5290 12.7386
v  19.7080 0.0308 15.7324
v  17.3190 -0.6504 14.8628
v  14.9694 0.0308 28.7516
v  12.5804 -0.6504 27.8820
v  9.6819 11.6205 34.1990
v  7.2929 10.9393 33.3295
v  9.1330 23.2102 26.6273
v  6.7441 22.5290 25.7578
v  14.1875 10.6873 11.6374
v  10.7958 18.1217 15.1317
v  14.5396 3.2530 16.4944
v  11.5000 3.2530 24.8457
v  8.1083 10.6873 28.3400
v  7.7562 18.1217 23.4831
v  -22.7755 0.8938 6.3271
v  -23.2469 1.9271 6.8128
v  -22.7265 -0.1396 7.0022
v  -23.1490 -0.1396 8.1629
v  -23.6205 0.8938 8.6486
v  -23.6694 1.9271 7.9735
v  22.0353 0.0000 -10.2338
v  10.6862 0.0000 -18.1805
v  10.6862 2.6320 -18.1805
v  22.0353 2.6320 -10.2338
v  -1.8705 0.0000 -12.3252
v  -1.8705 2.6320 -12.3252
v  -3.0780 0.0000 1.4768
v  -3.0780 2.6320 1.4768
v  8.2712 0.0000 9.4235
v  8.2712 2.6320 9.4235
v  20.8278 0.0000 3.5683
v  20.8278 2.6320 3.5683
v  10.2533 3.6055 -13.2319
v  17.5333 3.6055 -8.1344
v  2.1986 3.6055 -9.4760
v  1.4241 3.6055 -0.6226
v  8.7041 3.6055 4.4750
v  16.7587 3.6055 0.7191
v  9.5863 41.4449 -5.6091
v  10.5982 41.4449 -4.9005
v  8.4668 41.4449 -5.0870
v  8.3591 41.4449 -3.8564
v  9.3710 41.4449 -3.1479
v  10.4906 41.4449 -3.6700
# 72 vertices

vn 0.7071 0.0000 -0.7071
vn -0.2588 0.0000 -0.9659
vn -0.2160 0.5511 -0.8060
vn 0.5901 0.5511 -0.5901
vn -0.9659 -0.0000 -0.2588
vn -0.8060 0.5510 -0.2160
vn -0.7071 -0.0000 0.7071
vn -0.5901 0.5510 0.5901
vn 0.2588 0.0000 0.9659
vn 0.2160 0.5510 0.8060
vn 0.9659 0.0000 0.2588
vn 0.8060 0.5511 0.2160
vn -0.0498 0.9813 -0.1858
vn 0.1360 0.9813 -0.1360
vn -0.1858 0.9813 -0.0498
vn -0.1360 0.9813 0.1360
vn 0.0498 0.9813 0.1858
vn 0.1858 0.9813 0.0498
vn -0.2537 0.1982 -0.9468
vn 0.6931 0.1982 -0.6931
vn -0.9468 0.1982 -0.2537
vn -0.6931 0.1982 0.6931
vn 0.2537 0.1982 0.9468
vn 0.9468 0.1982 0.2537
vn 0.0000 1.0000 -0.0000
vn 0.0000 -1.0000 -0.0000
vn -0.0396 0.8365 -0.5465
vn 0.3420 -0.0000 -0.9397
vn -0.2148 -0.1426 -0.9662
vn -0.5332 0.5554 -0.6381
vn 0.3816 -0.8365 -0.3932
vn -0.1817 -0.8407 -0.5101
vn 0.0396 -0.8365 0.5465
vn -0.4671 -0.8407 0.2740
vn -0.3420 0.0000 0.9397
vn -0.7856 -0.1426 0.6021
vn -0.3816 0.8365 0.3932
vn -0.8186 0.5554 0.1461
vn -0.8250 -0.2540 -0.5049
vn -0.8983 -0.0931 -0.4293
vn -0.8173 -0.4149 -0.3998
vn -0.8831 -0.4149 -0.2191
vn -0.9565 -0.2540 -0.1435
vn -0.9641 -0.0931 -0.2486
vn 0.1553 -0.0513 -0.9865
vn -0.2187 0.7686 -0.6011
vn 0.1942 -0.8712 -0.4509
vn -0.1411 -0.8712 0.4702
vn -0.5151 -0.0513 0.8556
vn -0.5540 0.7686 0.3199
vn -0.9077 -0.2588 -0.3304
vn 0.9077 0.2588 0.3304
vn 0.9063 0.0000 -0.4226
vn 0.0872 0.0000 -0.9962
vn 0.0727 0.5511 -0.8313
vn 0.7563 0.5511 -0.3527
vn -0.8192 -0.0000 -0.5736
vn -0.6836 0.5510 -0.4786
vn -0.9063 -0.0000 0.4226
vn -0.7563 0.5510 0.3527
vn -0.0872 0.0000 0.9962
vn -0.0727 0.5510 0.8313
vn 0.8192 0.0000 0.5736
vn 0.6836 0.5511 0.4786
vn 0.0168 0.9813 -0.1916
vn 0.1743 0.9813 -0.0813
vn -0.1575 0.9813 -0.1103
vn -0.1743 0.9813 0.0813
vn -0.0168 0.9813 0.1916
vn 0.1575 0.9813 0.1103
vn 0.0854 0.1982 -0.9764
vn 0.8883 0.1982 -0.4142
vn -0.8029 0.1982 -0.5622
vn -0.8883 0.1982 0.4142
vn -0.0854 0.1982 0.9764
vn 0.8029 0.1982 0.5622
# 76 vertex normals

vt 0.3207 0.0596 0.0000
vt 0.3568 0.1051 0.0000
vt 0.3467 0.1128 0.0000
vt 0.3134 0.0681 0.0000
vt 0.0700 0.0877 0.0000
vt 0.1157 0.0452 0.0000
vt 0.1219 0.0544 0.0000
vt 0.0781 0.0964 0.0000
vt 0.1694 0.0236 0.0000
vt 0.1724 0.0345 0.0000
vt 0.2240 0.0202 0.0000
vt 0.2235 0.0311 0.0000
vt 0.2756 0.0325 0.0000
vt 0.2720 0.0425 0.0000
vt 0.3274 0.1151 0.0000
vt 0.2998 0.0811 0.0000
vt 0.1330 0.0743 0.0000
vt 0.1031 0.1040 0.0000
vt 0.1759 0.0561 0.0000
vt 0.2202 0.0519 0.0000
vt 0.2629 0.0607 0.0000
vt 0.2233 0.2304 0.0000
vt 0.2205 0.2262 0.0000
vt 0.2011 0.2254 0.0000
vt 0.1975 0.2289 0.0000
vt 0.2059 0.2253 0.0000
vt 0.2107 0.2250 0.0000
vt 0.2154 0.2259 0.0000
vt 0.2128 0.2304 0.0000
vt 0.0965 0.1626 0.0000
vt 0.0632 0.1959 0.0000
vt 0.0388 0.1048 0.0000
vt 0.0843 0.1170 0.0000
vt 0.0176 0.1837 0.0000
vt 0.0054 0.1382 0.0000
vt 0.2082 0.2303 0.0000
# 36 texture coords

g Traffic_Cone_01
usemtl 02___Default
s 2
f 1/1/1 2/2/2 3/3/3 4/4/4 
f 2/5/2 5/6/5 6/7/6 3/8/3 
f 5/6/5 7/9/7 8/10/8 6/7/6 
f 7/9/7 9/11/9 10/12/10 8/10/8 
f 9/11/9 11/13/11 12/14/12 10/12/10 
f 11/13/11 1/1/1 4/4/4 12/14/12 
f 4/4/4 3/3/3 13/15/13 14/16/14 
f 3/8/3 6/7/6 15/17/15 13/18/13 
f 6/7/6 8/10/8 16/19/16 15/17/15 
f 8/10/8 10/12/10 17/20/17 16/19/16 
f 10/12/10 12/14/12 18/21/18 17/20/17 
f 12/14/12 4/4/4 14/16/14 18/21/18 
s 1
f 13/15/19 19/22/19 20/23/20 14/16/20 
f 15/17/21 21/24/21 19/25/19 13/18/19 
f 16/19/22 22/26/22 21/24/21 15/17/21 
f 17/20/23 23/27/23 22/26/22 16/19/22 
f 18/21/24 24/28/24 23/27/23 17/20/23 
f 14/16/20 20/23/20 24/28/24 18/21/24 
s 2
f 19/22/25 23/29/25 24/28/25 20/23/25 
s off
f 11/30/26 9/31/26 2/32/26 1/33/26 
f 7/34/26 5/35/26 2/32/26 9/31/26 
s 2
f 21/24/25 22/26/25 23/36/25 19/25/25 
f 25/1/27 26/2/28 27/3/29 28/4/30 
f 26/5/28 29/6/31 30/7/32 27/8/29 
f 29/6/31 31/9/33 32/10/34 30/7/32 
f 31/9/33 33/11/35 34/12/36 32/10/34 
f 33/11/35 35/13/37 36/14/38 34/12/36 
f 35/13/37 25/1/27 28/4/30 36/14/38 
f 28/4/30 27/3/29 37/15/39 38/16/40 
f 27/8/29 30/7/32 39/17/41 37/18/39 
f 30/7/32 32/10/34 40/19/42 39/17/41 
f 32/10/34 34/12/36 41/20/43 40/19/42 
f 34/12/36 36/14/38 42/21/44 41/20/43 
f 36/14/38 28/4/30 38/16/40 42/21/44 
s 1
f 37/15/45 43/22/45 44/23/46 38/16/46 
f 39/17/47 45/24/47 43/25/45 37/18/45 
f 40/19/48 46/26/48 45/24/47 39/17/47 
f 41/20/49 47/27/49 46/26/48 40/19/48 
f 42/21/50 48/28/50 47/27/49 41/20/49 
f 38/16/46 44/23/46 48/28/50 42/21/50 
s 2
f 43/22/51 47/29/51 48/28/51 44/23/51 
s off
f 35/30/52 33/31/52 26/32/52 25/33/52 
f 31/34/52 29/35/52 26/32/52 33/31/52 
s 2
f 45/24/51 46/26/51 47/36/51 43/25/51 
f 49/1/53 50/2/54 51/3/55 52/4/56 
f 50/5/54 53/6/57 54/7/58 51/8/55 
f 53/6/57 55/9/59 56/10/60 54/7/58 
f 55/9/59 57/11/61 58/12/62 56/10/60 
f 57/11/61 59/13/63 60/14/64 58/12/62 
f 59/13/63 49/1/53 52/4/56 60/14/64 
f 52/4/56 51/3/55 61/15/65 62/16/66 
f 51/8/55 54/7/58 63/17/67 61/18/65 
f 54/7/58 56/10/60 64/19/68 63/17/67 
f 56/10/60 58/12/62 65/20/69 64/19/68 
f 58/12/62 60/14/64 66/21/70 65/20/69 
f 60/14/64 52/4/56 62/16/66 66/21/70 
s 1
f 61/15/71 67/22/71 68/23/72 62/16/72 
f 63/17/73 69/24/73 67/25/71 61/18/71 
f 64/19/74 70/26/74 69/24/73 63/17/73 
f 65/20/75 71/27/75 70/26/74 64/19/74 
f 66/21/76 72/28/76 71/27/75 65/20/75 
f 62/16/72 68/23/72 72/28/76 66/21/76 
s 2
f 67/22/25 71/29/25 72/28/25 68/23/25 
s off
f 59/30/26 57/31/26 50/32/26 49/33/26 
f 55/34/26 53/35/26 50/32/26 57/31/26 
s 2
f 69/24/25 70/26/25 71/36/25 67/25/25 
# 66 polygons

