# 3ds Max Wavefront OBJ Exporter v0.97b - (c)2007 guruware
# File Created: 08.01.2019 23:02:46

mtllib Trash Bags.mtl

#
# object TRASH_BAGS
#

v  -5.4618 -0.1443 0.1431
v  -7.6994 -0.1443 -14.5818
v  -2.1233 2.3439 -18.4862
v  0.7076 2.3439 3.0199
v  -21.0169 -0.1443 -22.0718
v  -21.6102 2.3439 -28.8531
v  -33.8426 -0.1443 -13.0911
v  -40.0120 2.3439 -15.9679
v  -31.5126 -0.1443 1.5413
v  -37.0887 2.3439 5.4457
v  -18.2876 -0.1443 9.1238
v  -17.6943 2.3439 15.9051
v  -9.2361 32.5293 0.0756
v  -9.5271 35.1173 -7.4821
v  -22.4395 36.2906 1.8720
v  -15.6923 33.1160 4.7527
v  -2.1557 9.7878 -18.3826
v  0.8711 9.8817 3.0993
v  -21.6282 9.8817 -29.0330
v  -40.1798 9.8817 -16.0430
v  -37.0403 9.7775 5.3234
v  -17.6805 9.8817 16.0893
v  -13.8394 30.0129 -2.6556
v  -13.9895 31.3478 -6.5542
v  -17.4700 32.9854 -8.0402
v  -16.2743 38.2919 -10.3628
v  -20.8003 33.2880 -5.6276
v  -22.7305 38.8785 -5.6857
v  -20.6502 31.9531 -1.7290
v  -17.1697 30.3155 -0.2430
v  -8.1059 23.2651 -0.7993
v  -9.9703 24.0754 -12.0325
v  -20.1071 25.0693 -17.9625
v  -30.0427 25.2530 -10.9958
v  -28.0902 24.4427 0.1493
v  -18.0416 23.4488 6.1674
v  -5.5827 17.3287 -15.9800
v  -2.9308 17.4481 1.3251
v  -21.2616 17.4481 -24.8539
v  -36.3760 17.4481 -14.2707
v  -33.6123 17.3159 2.9190
v  -18.0453 17.4481 11.9084
v  -4.2694 -0.1443 27.9844
v  4.6441 -0.1443 27.4173
v  6.6851 1.3478 30.9525
v  -6.3104 1.3478 31.5196
v  9.8146 -0.1443 19.8530
v  13.8967 1.3478 19.8530
v  5.1199 -0.1443 11.7216
v  7.1610 1.3478 8.1865
v  -3.7431 -0.1443 12.3488
v  -5.7841 1.3478 8.8137
v  -8.9640 -0.1443 19.8530
v  -13.0461 1.3478 19.8530
v  -4.0318 19.4492 25.7332
v  0.4983 21.0011 25.9544
v  -4.4149 21.7047 17.7517
v  -6.4884 19.8010 21.6319
v  6.6249 5.8117 30.9277
v  -6.3664 5.8680 31.6131
v  14.0051 5.8680 19.8517
v  7.2146 5.8680 8.0902
v  -5.7136 5.8055 8.8490
v  -13.1569 5.8680 19.8517
v  -2.1596 17.9401 23.1260
v  0.1772 18.7407 23.2401
v  1.2469 19.7227 21.2386
v  2.5719 22.9048 22.0742
v  -0.0204 19.9042 19.1229
v  0.1153 23.2566 17.9729
v  -2.3572 19.1036 19.0088
v  -3.4268 18.1216 21.0104
v  -3.5682 13.8937 26.4541
v  3.2399 14.3796 25.9274
v  7.3122 14.9756 20.1818
v  3.6696 15.0858 13.8822
v  -3.0904 14.5999 14.4661
v  -7.2108 14.0038 20.1545
v  5.3687 10.3338 28.7549
v  -5.1078 10.4054 29.4346
v  11.4894 10.4054 19.8523
v  5.9570 10.4054 10.2699
v  -4.4564 10.3261 11.0225
v  -10.6402 10.4054 19.8523
v  7.3209 -0.1443 -9.2027
v  8.0430 -0.1443 2.1473
v  3.5415 1.7557 4.7462
v  2.8194 1.7557 -11.8016
v  17.6749 -0.1443 8.7311
v  17.6749 1.7557 13.9290
v  28.0290 -0.1443 2.7532
v  32.5305 1.7557 5.3521
v  27.2304 -0.1443 -8.5325
v  31.7319 1.7557 -11.1315
v  17.6749 -0.1443 -15.1806
v  17.6749 1.7557 -20.3785
v  10.1874 24.8050 -8.9002
v  9.9058 26.7812 -3.1317
v  20.3506 27.6771 -9.3879
v  15.4098 25.2530 -12.0282
v  3.5730 7.4397 4.6695
v  2.7002 7.5115 -11.8729
v  17.6767 7.5115 14.0671
v  32.6531 7.5115 5.4204
v  31.6869 7.4319 -11.0416
v  17.6767 7.5115 -20.5195
v  13.5073 22.8835 -6.5162
v  13.3620 23.9028 -3.5406
v  15.9107 25.1533 -2.1786
v  14.8466 29.2053 -0.4914
v  18.6046 25.3844 -3.7922
v  20.0690 29.6532 -3.6195
v  18.7499 24.3650 -6.7678
v  16.2012 23.1145 -8.1298
v  9.2695 17.7309 -8.3098
v  9.9401 18.3496 0.3592
v  17.2563 19.1086 5.5447
v  25.2779 19.2489 0.9065
v  24.5344 18.6301 -7.7014
v  17.2911 17.8712 -12.9481
v  6.3398 13.1980 3.0700
v  5.4742 13.2891 -10.2702
v  17.6759 13.2891 10.8637
v  29.8776 13.2891 3.8191
v  28.9193 13.1881 -9.4408
v  17.6759 13.2891 -17.3149
# 126 vertices

vn 0.3147 -0.9398 0.1331
vn 0.2818 -0.9384 -0.1998
vn 0.7092 -0.5024 -0.4945
vn 0.7881 -0.5081 0.3475
vn -0.0090 -0.9390 -0.3438
vn -0.0522 -0.5085 -0.8595
vn -0.3151 -0.9399 -0.1318
vn -0.7889 -0.5080 -0.3458
vn -0.2819 -0.9383 0.2002
vn -0.7096 -0.5019 0.4946
vn 0.0066 -0.9390 0.3440
vn 0.0499 -0.5085 0.8596
vn 0.8954 -0.0704 0.4397
vn 0.8611 0.2346 -0.4511
vn -0.6608 0.3729 0.6514
vn 0.1345 -0.0013 0.9909
vn 0.8000 0.2362 -0.5516
vn 0.8929 0.2224 0.3916
vn -0.0579 0.2226 -0.9732
vn -0.8939 0.2224 -0.3891
vn -0.8000 0.2376 0.5509
vn 0.0548 0.2226 0.9734
vn 0.8860 -0.1319 0.4445
vn 0.7807 0.0416 -0.6236
vn -0.0974 0.2660 -0.9590
vn 0.0659 0.6088 -0.7906
vn -0.8728 0.2865 -0.3952
vn -0.6951 0.6779 -0.2394
vn -0.8406 0.0365 0.5404
vn -0.0196 -0.1433 0.9895
vn 0.6844 0.6628 0.3037
vn 0.6584 0.6444 -0.3890
vn -0.0020 0.7213 -0.6926
vn -0.6350 0.7325 -0.2453
vn -0.5740 0.6724 0.4674
vn 0.0453 0.6817 0.7303
vn 0.6859 0.5566 -0.4687
vn 0.7530 0.5756 0.3189
vn -0.0429 0.5662 -0.8232
vn -0.7578 0.5671 -0.3227
vn -0.6832 0.5568 0.4725
vn 0.0319 0.5758 0.8170
vn -0.1600 -0.9398 0.3019
vn 0.1745 -0.9384 0.2982
vn 0.4308 -0.5024 0.7496
vn -0.4148 -0.5081 0.7548
vn 0.3432 -0.9390 0.0210
vn 0.8608 -0.5085 0.0229
vn 0.1587 -0.9399 -0.3024
vn 0.4133 -0.5080 -0.7557
vn -0.1748 -0.9383 -0.2982
vn -0.4308 -0.5019 -0.7500
vn -0.3432 -0.9390 -0.0234
vn -0.8607 -0.5085 -0.0252
vn -0.5160 -0.0704 0.8537
vn 0.3743 0.2346 0.8971
vn -0.5913 0.3729 -0.7150
vn -0.9989 -0.0013 0.0476
vn 0.4798 0.2362 0.8450
vn -0.4679 0.2224 0.8553
vn 0.9745 0.2226 0.0271
vn 0.4656 0.2224 -0.8566
vn -0.4790 0.2376 -0.8450
vn -0.9744 0.2226 -0.0302
vn -0.5200 -0.1319 0.8439
vn 0.5532 0.0416 0.8320
vn 0.9639 0.2660 -0.0135
vn 0.7818 0.6088 0.1345
vn 0.4697 0.2865 -0.8350
vn 0.2990 0.6779 -0.6716
vn -0.4650 0.0365 -0.8845
vn -0.9840 -0.1433 -0.1058
vn -0.3622 0.6628 0.6553
vn 0.3301 0.6444 0.6898
vn 0.6902 0.7213 0.0584
vn 0.2997 0.7325 -0.6113
vn -0.4156 0.6724 -0.6125
vn -0.7314 0.6817 -0.0185
vn 0.4072 0.5566 0.7241
vn -0.3834 0.5756 0.7223
vn 0.8238 0.5662 0.0290
vn 0.3875 0.5671 -0.7268
vn -0.4112 0.5568 -0.7218
vn -0.8166 0.5758 -0.0394
vn -0.3019 -0.9398 -0.1600
vn -0.2982 -0.9384 0.1745
vn -0.7496 -0.5024 0.4308
vn -0.7548 -0.5081 -0.4148
vn -0.0210 -0.9390 0.3432
vn -0.0229 -0.5085 0.8608
vn 0.3024 -0.9399 0.1587
vn 0.7557 -0.5080 0.4133
vn 0.2982 -0.9383 -0.1748
vn 0.7500 -0.5019 -0.4308
vn 0.0234 -0.9390 -0.3432
vn 0.0252 -0.5085 -0.8607
vn -0.8537 -0.0704 -0.5160
vn -0.8971 0.2346 0.3743
vn 0.7150 0.3729 -0.5913
vn -0.0476 -0.0013 -0.9989
vn -0.8450 0.2362 0.4798
vn -0.8553 0.2224 -0.4679
vn -0.0271 0.2226 0.9745
vn 0.8566 0.2224 0.4656
vn 0.8450 0.2376 -0.4790
vn 0.0302 0.2226 -0.9744
vn -0.8439 -0.1319 -0.5200
vn -0.8320 0.0416 0.5532
vn 0.0135 0.2660 0.9639
vn -0.1345 0.6088 0.7818
vn 0.8350 0.2865 0.4697
vn 0.6716 0.6779 0.2990
vn 0.8845 0.0365 -0.4650
vn 0.1058 -0.1433 -0.9840
vn -0.6553 0.6628 -0.3622
vn -0.6898 0.6444 0.3301
vn -0.0584 0.7213 0.6902
vn 0.6113 0.7325 0.2997
vn 0.6125 0.6724 -0.4156
vn 0.0185 0.6817 -0.7314
vn -0.7241 0.5566 0.4072
vn -0.7223 0.5756 -0.3834
vn -0.0290 0.5662 0.8238
vn 0.7268 0.5671 0.3875
vn 0.7218 0.5568 -0.4112
vn 0.0394 0.5758 -0.8166
# 126 vertex normals

vt 0.6072 0.0421 0.9772
vt 0.6600 0.0764 1.1214
vt 0.6513 0.0927 1.0800
vt 0.6013 0.0565 0.9292
vt 0.7014 0.1103 0.5632
vt 0.6993 0.1358 0.4752
vt 0.3683 0.0847 0.5632
vt 0.4158 0.0557 0.6253
vt 0.4213 0.0718 0.5474
vt 0.3683 0.1107 0.4752
vt 0.4732 0.0285 0.7230
vt 0.4766 0.0444 0.6569
vt 0.5406 0.0237 0.8526
vt 0.5396 0.0386 0.7972
vt 0.5642 0.1836 0.0000
vt 0.5342 0.1643 0.0000
vt 0.5306 0.2370 0.0000
vt 0.5624 0.2200 0.0000
vt 0.6408 0.1099 1.1492
vt 0.5944 0.0748 1.0054
vt 0.6816 0.1590 0.5893
vt 0.4286 0.0897 0.6534
vt 0.3834 0.1366 0.5893
vt 0.4804 0.0637 0.7542
vt 0.5380 0.0579 0.8822
vt 0.5565 0.1429 1.2865
vt 0.5714 0.1549 1.4047
vt 0.5606 0.1692 1.4188
vt 0.5492 0.1570 1.3005
vt 0.5790 0.1661 1.0101
vt 0.5775 0.1816 1.0281
vt 0.4884 0.1627 1.0101
vt 0.4988 0.1533 1.0447
vt 0.5073 0.1689 1.0618
vt 0.4882 0.1785 1.0281
vt 0.5146 0.1431 1.1129
vt 0.5211 0.1580 1.1306
vt 0.5352 0.1378 1.1958
vt 0.5353 0.1529 1.2111
vt 0.5024 0.1814 0.0000
vt 0.5006 0.2178 0.0000
vt 0.5718 0.1190 1.1061
vt 0.6000 0.1415 1.2408
vt 0.6161 0.1735 0.7401
vt 0.4490 0.1612 0.7401
vt 0.4659 0.1291 0.7936
vt 0.4981 0.1144 0.8827
vt 0.5346 0.1087 0.9946
vt 0.6233 0.1271 1.2060
vt 0.5840 0.0974 1.0679
vt 0.6516 0.1718 0.6828
vt 0.4427 0.1084 0.7403
vt 0.4126 0.1532 0.6828
vt 0.4869 0.0879 0.8339
vt 0.5357 0.0830 0.9519
# 55 texture coords

g TRASH_BAGS
usemtl 01___Default
s 1
f 1/1/1 2/2/2 3/3/3 4/4/4 
f 2/2/2 5/5/5 6/6/6 3/3/3 
f 5/7/5 7/8/7 8/9/8 6/10/6 
f 7/8/7 9/11/9 10/12/10 8/9/8 
f 9/11/9 11/13/11 12/14/12 10/12/10 
f 11/13/11 1/1/1 4/4/4 12/14/12 
f 13/15/13 14/16/14 15/17/15 16/18/16 
f 3/3/3 17/19/17 18/20/18 4/4/4 
f 3/3/3 6/6/6 19/21/19 17/19/17 
f 8/9/8 20/22/20 19/23/19 6/10/6 
f 10/12/10 21/24/21 20/22/20 8/9/8 
f 10/12/10 12/14/12 22/25/22 21/24/21 
f 4/4/4 18/20/18 22/25/22 12/14/12 
f 23/26/23 24/27/24 14/28/14 13/29/13 
f 24/27/24 25/30/25 26/31/26 14/28/14 
f 25/32/25 27/33/27 28/34/28 26/35/26 
f 27/33/27 29/36/29 15/37/15 28/34/28 
f 29/36/29 30/38/30 16/39/16 15/37/15 
f 30/38/30 23/26/23 13/29/13 16/39/16 
f 26/40/26 28/41/28 15/17/15 14/16/14 
f 24/27/24 23/26/23 31/42/31 32/43/32 
f 25/30/25 24/27/24 32/43/32 33/44/33 
f 27/33/27 25/32/25 33/45/33 34/46/34 
f 29/36/29 27/33/27 34/46/34 35/47/35 
f 30/38/30 29/36/29 35/47/35 36/48/36 
f 23/26/23 30/38/30 36/48/36 31/42/31 
f 17/19/17 37/49/37 38/50/38 18/20/18 
f 39/51/39 37/49/37 17/19/17 19/21/19 
f 40/52/40 39/53/39 19/23/19 20/22/20 
f 21/24/21 41/54/41 40/52/40 20/22/20 
f 42/55/42 41/54/41 21/24/21 22/25/22 
f 38/50/38 42/55/42 22/25/22 18/20/18 
f 37/49/37 32/43/32 31/42/31 38/50/38 
f 33/44/33 32/43/32 37/49/37 39/51/39 
f 34/46/34 33/45/33 39/53/39 40/52/40 
f 41/54/41 35/47/35 34/46/34 40/52/40 
f 36/48/36 35/47/35 41/54/41 42/55/42 
f 31/42/31 36/48/36 42/55/42 38/50/38 
f 43/1/43 44/2/44 45/3/45 46/4/46 
f 44/2/44 47/5/47 48/6/48 45/3/45 
f 47/7/47 49/8/49 50/9/50 48/10/48 
f 49/8/49 51/11/51 52/12/52 50/9/50 
f 51/11/51 53/13/53 54/14/54 52/12/52 
f 53/13/53 43/1/43 46/4/46 54/14/54 
f 55/15/55 56/16/56 57/17/57 58/18/58 
f 45/3/45 59/19/59 60/20/60 46/4/46 
f 45/3/45 48/6/48 61/21/61 59/19/59 
f 50/9/50 62/22/62 61/23/61 48/10/48 
f 52/12/52 63/24/63 62/22/62 50/9/50 
f 52/12/52 54/14/54 64/25/64 63/24/63 
f 46/4/46 60/20/60 64/25/64 54/14/54 
f 65/26/65 66/27/66 56/28/56 55/29/55 
f 66/27/66 67/30/67 68/31/68 56/28/56 
f 67/32/67 69/33/69 70/34/70 68/35/68 
f 69/33/69 71/36/71 57/37/57 70/34/70 
f 71/36/71 72/38/72 58/39/58 57/37/57 
f 72/38/72 65/26/65 55/29/55 58/39/58 
f 68/40/68 70/41/70 57/17/57 56/16/56 
f 66/27/66 65/26/65 73/42/73 74/43/74 
f 67/30/67 66/27/66 74/43/74 75/44/75 
f 69/33/69 67/32/67 75/45/75 76/46/76 
f 71/36/71 69/33/69 76/46/76 77/47/77 
f 72/38/72 71/36/71 77/47/77 78/48/78 
f 65/26/65 72/38/72 78/48/78 73/42/73 
f 59/19/59 79/49/79 80/50/80 60/20/60 
f 81/51/81 79/49/79 59/19/59 61/21/61 
f 82/52/82 81/53/81 61/23/61 62/22/62 
f 63/24/63 83/54/83 82/52/82 62/22/62 
f 84/55/84 83/54/83 63/24/63 64/25/64 
f 80/50/80 84/55/84 64/25/64 60/20/60 
f 79/49/79 74/43/74 73/42/73 80/50/80 
f 75/44/75 74/43/74 79/49/79 81/51/81 
f 76/46/76 75/45/75 81/53/81 82/52/82 
f 83/54/83 77/47/77 76/46/76 82/52/82 
f 78/48/78 77/47/77 83/54/83 84/55/84 
f 73/42/73 78/48/78 84/55/84 80/50/80 
f 85/1/85 86/2/86 87/3/87 88/4/88 
f 86/2/86 89/5/89 90/6/90 87/3/87 
f 89/7/89 91/8/91 92/9/92 90/10/90 
f 91/8/91 93/11/93 94/12/94 92/9/92 
f 93/11/93 95/13/95 96/14/96 94/12/94 
f 95/13/95 85/1/85 88/4/88 96/14/96 
f 97/15/97 98/16/98 99/17/99 100/18/100 
f 87/3/87 101/19/101 102/20/102 88/4/88 
f 87/3/87 90/6/90 103/21/103 101/19/101 
f 92/9/92 104/22/104 103/23/103 90/10/90 
f 94/12/94 105/24/105 104/22/104 92/9/92 
f 94/12/94 96/14/96 106/25/106 105/24/105 
f 88/4/88 102/20/102 106/25/106 96/14/96 
f 107/26/107 108/27/108 98/28/98 97/29/97 
f 108/27/108 109/30/109 110/31/110 98/28/98 
f 109/32/109 111/33/111 112/34/112 110/35/110 
f 111/33/111 113/36/113 99/37/99 112/34/112 
f 113/36/113 114/38/114 100/39/100 99/37/99 
f 114/38/114 107/26/107 97/29/97 100/39/100 
f 110/40/110 112/41/112 99/17/99 98/16/98 
f 108/27/108 107/26/107 115/42/115 116/43/116 
f 109/30/109 108/27/108 116/43/116 117/44/117 
f 111/33/111 109/32/109 117/45/117 118/46/118 
f 113/36/113 111/33/111 118/46/118 119/47/119 
f 114/38/114 113/36/113 119/47/119 120/48/120 
f 107/26/107 114/38/114 120/48/120 115/42/115 
f 101/19/101 121/49/121 122/50/122 102/20/102 
f 123/51/123 121/49/121 101/19/101 103/21/103 
f 124/52/124 123/53/123 103/23/103 104/22/104 
f 105/24/105 125/54/125 124/52/124 104/22/104 
f 126/55/126 125/54/125 105/24/105 106/25/106 
f 122/50/122 126/55/126 106/25/106 102/20/102 
f 121/49/121 116/43/116 115/42/115 122/50/122 
f 117/44/117 116/43/116 121/49/121 123/51/123 
f 118/46/118 117/45/117 123/53/123 124/52/124 
f 125/54/125 119/47/119 118/46/118 124/52/124 
f 120/48/120 119/47/119 125/54/125 126/55/126 
f 115/42/115 120/48/120 126/55/126 122/50/122 
# 114 polygons

